<svg width="89" height="32" viewBox="0 0 89 32" fill="none" xmlns="http://www.w3.org/2000/svg">
<circle cx="14.5" cy="14.5" r="14.5" fill="#314158"/>
<path d="M44.284 5.576V14H42.232V8.948L40.348 14H38.692L36.796 8.936V14H34.744V5.576H37.168L39.532 11.408L41.872 5.576H44.284ZM52.0716 10.544C52.0716 10.736 52.0596 10.936 52.0356 11.144H47.3916C47.4236 11.56 47.5556 11.88 47.7876 12.104C48.0276 12.32 48.3196 12.428 48.6636 12.428C49.1756 12.428 49.5316 12.212 49.7316 11.78H51.9156C51.8036 12.22 51.5996 12.616 51.3036 12.968C51.0156 13.32 50.6516 13.596 50.2116 13.796C49.7716 13.996 49.2796 14.096 48.7356 14.096C48.0796 14.096 47.4956 13.956 46.9836 13.676C46.4716 13.396 46.0716 12.996 45.7836 12.476C45.4956 11.956 45.3516 11.348 45.3516 10.652C45.3516 9.956 45.4916 9.348 45.7716 8.828C46.0596 8.308 46.4596 7.908 46.9716 7.628C47.4836 7.348 48.0716 7.208 48.7356 7.208C49.3836 7.208 49.9596 7.344 50.4636 7.616C50.9676 7.888 51.3596 8.276 51.6396 8.78C51.9276 9.284 52.0716 9.872 52.0716 10.544ZM49.9716 10.004C49.9716 9.652 49.8516 9.372 49.6116 9.164C49.3716 8.956 49.0716 8.852 48.7116 8.852C48.3676 8.852 48.0756 8.952 47.8356 9.152C47.6036 9.352 47.4596 9.636 47.4036 10.004H49.9716ZM55.2062 8.42C55.4462 8.052 55.7462 7.764 56.1062 7.556C56.4662 7.34 56.8662 7.232 57.3062 7.232V9.404H56.7422C56.2302 9.404 55.8462 9.516 55.5902 9.74C55.3342 9.956 55.2062 10.34 55.2062 10.892V14H53.1542V7.304H55.2062V8.42ZM57.879 10.652C57.879 9.956 58.019 9.348 58.299 8.828C58.587 8.308 58.983 7.908 59.487 7.628C59.999 7.348 60.583 7.208 61.239 7.208C62.079 7.208 62.779 7.428 63.339 7.868C63.907 8.308 64.279 8.928 64.455 9.728H62.271C62.087 9.216 61.731 8.96 61.203 8.96C60.827 8.96 60.527 9.108 60.303 9.404C60.079 9.692 59.967 10.108 59.967 10.652C59.967 11.196 60.079 11.616 60.303 11.912C60.527 12.2 60.827 12.344 61.203 12.344C61.731 12.344 62.087 12.088 62.271 11.576H64.455C64.279 12.36 63.907 12.976 63.339 13.424C62.771 13.872 62.071 14.096 61.239 14.096C60.583 14.096 59.999 13.956 59.487 13.676C58.983 13.396 58.587 12.996 58.299 12.476C58.019 11.956 57.879 11.348 57.879 10.652ZM65.1446 10.64C65.1446 9.952 65.2726 9.348 65.5286 8.828C65.7926 8.308 66.1486 7.908 66.5966 7.628C67.0446 7.348 67.5446 7.208 68.0966 7.208C68.5686 7.208 68.9806 7.304 69.3326 7.496C69.6926 7.688 69.9686 7.94 70.1606 8.252V7.304H72.2126V14H70.1606V13.052C69.9606 13.364 69.6806 13.616 69.3206 13.808C68.9686 14 68.5566 14.096 68.0846 14.096C67.5406 14.096 67.0446 13.956 66.5966 13.676C66.1486 13.388 65.7926 12.984 65.5286 12.464C65.2726 11.936 65.1446 11.328 65.1446 10.64ZM70.1606 10.652C70.1606 10.14 70.0166 9.736 69.7286 9.44C69.4486 9.144 69.1046 8.996 68.6966 8.996C68.2886 8.996 67.9406 9.144 67.6526 9.44C67.3726 9.728 67.2326 10.128 67.2326 10.64C67.2326 11.152 67.3726 11.56 67.6526 11.864C67.9406 12.16 68.2886 12.308 68.6966 12.308C69.1046 12.308 69.4486 12.16 69.7286 11.864C70.0166 11.568 70.1606 11.164 70.1606 10.652ZM73.2891 10.64C73.2891 9.952 73.4171 9.348 73.6731 8.828C73.9371 8.308 74.2931 7.908 74.7411 7.628C75.1891 7.348 75.6891 7.208 76.2411 7.208C76.6811 7.208 77.0811 7.3 77.4411 7.484C77.8091 7.668 78.0971 7.916 78.3051 8.228V5.12H80.3571V14H78.3051V13.04C78.1131 13.36 77.8371 13.616 77.4771 13.808C77.1251 14 76.7131 14.096 76.2411 14.096C75.6891 14.096 75.1891 13.956 74.7411 13.676C74.2931 13.388 73.9371 12.984 73.6731 12.464C73.4171 11.936 73.2891 11.328 73.2891 10.64ZM78.3051 10.652C78.3051 10.14 78.1611 9.736 77.8731 9.44C77.5931 9.144 77.2491 8.996 76.8411 8.996C76.4331 8.996 76.0851 9.144 75.7971 9.44C75.5171 9.728 75.3771 10.128 75.3771 10.64C75.3771 11.152 75.5171 11.56 75.7971 11.864C76.0851 12.16 76.4331 12.308 76.8411 12.308C77.2491 12.308 77.5931 12.16 77.8731 11.864C78.1611 11.568 78.3051 11.164 78.3051 10.652ZM84.8897 14.096C84.2337 14.096 83.6417 13.956 83.1137 13.676C82.5937 13.396 82.1817 12.996 81.8777 12.476C81.5817 11.956 81.4337 11.348 81.4337 10.652C81.4337 9.964 81.5857 9.36 81.8897 8.84C82.1937 8.312 82.6097 7.908 83.1377 7.628C83.6657 7.348 84.2577 7.208 84.9137 7.208C85.5697 7.208 86.1617 7.348 86.6897 7.628C87.2177 7.908 87.6337 8.312 87.9377 8.84C88.2417 9.36 88.3937 9.964 88.3937 10.652C88.3937 11.34 88.2377 11.948 87.9257 12.476C87.6217 12.996 87.2017 13.396 86.6657 13.676C86.1377 13.956 85.5457 14.096 84.8897 14.096ZM84.8897 12.32C85.2817 12.32 85.6137 12.176 85.8857 11.888C86.1657 11.6 86.3057 11.188 86.3057 10.652C86.3057 10.116 86.1697 9.704 85.8977 9.416C85.6337 9.128 85.3057 8.984 84.9137 8.984C84.5137 8.984 84.1817 9.128 83.9177 9.416C83.6537 9.696 83.5217 10.108 83.5217 10.652C83.5217 11.188 83.6497 11.6 83.9057 11.888C84.1697 12.176 84.4977 12.32 84.8897 12.32Z" fill="black"/>
<path d="M35.596 19.512C35.348 19.512 35.14 19.428 34.972 19.26C34.804 19.092 34.72 18.884 34.72 18.636C34.72 18.388 34.804 18.18 34.972 18.012C35.14 17.844 35.348 17.76 35.596 17.76C35.836 17.76 36.04 17.844 36.208 18.012C36.376 18.18 36.46 18.388 36.46 18.636C36.46 18.884 36.376 19.092 36.208 19.26C36.04 19.428 35.836 19.512 35.596 19.512ZM36.268 20.388V27H34.9V20.388H36.268ZM42.3961 27L40.4761 23.664H39.4321V27H38.0641V18.66H40.9441C41.5841 18.66 42.1241 18.772 42.5641 18.996C43.0121 19.22 43.3441 19.52 43.5601 19.896C43.7841 20.272 43.8961 20.692 43.8961 21.156C43.8961 21.7 43.7361 22.196 43.4161 22.644C43.1041 23.084 42.6201 23.384 41.9641 23.544L44.0281 27H42.3961ZM39.4321 22.572H40.9441C41.4561 22.572 41.8401 22.444 42.0961 22.188C42.3601 21.932 42.4921 21.588 42.4921 21.156C42.4921 20.724 42.3641 20.388 42.1081 20.148C41.8521 19.9 41.4641 19.776 40.9441 19.776H39.4321V22.572ZM51.7061 23.532C51.7061 23.78 51.6901 24.004 51.6581 24.204H46.6061C46.6461 24.732 46.8421 25.156 47.1941 25.476C47.5461 25.796 47.9781 25.956 48.4901 25.956C49.2261 25.956 49.7461 25.648 50.0501 25.032H51.5261C51.3261 25.64 50.9621 26.14 50.4341 26.532C49.9141 26.916 49.2661 27.108 48.4901 27.108C47.8581 27.108 47.2901 26.968 46.7861 26.688C46.2901 26.4 45.8981 26 45.6101 25.488C45.3301 24.968 45.1901 24.368 45.1901 23.688C45.1901 23.008 45.3261 22.412 45.5981 21.9C45.8781 21.38 46.2661 20.98 46.7621 20.7C47.2661 20.42 47.8421 20.28 48.4901 20.28C49.1141 20.28 49.6701 20.416 50.1581 20.688C50.6461 20.96 51.0261 21.344 51.2981 21.84C51.5701 22.328 51.7061 22.892 51.7061 23.532ZM50.2781 23.1C50.2701 22.596 50.0901 22.192 49.7381 21.888C49.3861 21.584 48.9501 21.432 48.4301 21.432C47.9581 21.432 47.5541 21.584 47.2181 21.888C46.8821 22.184 46.6821 22.588 46.6181 23.1H50.2781ZM52.5963 23.664C52.5963 23 52.7323 22.412 53.0043 21.9C53.2843 21.388 53.6603 20.992 54.1323 20.712C54.6123 20.424 55.1443 20.28 55.7283 20.28C56.1603 20.28 56.5843 20.376 57.0003 20.568C57.4243 20.752 57.7603 21 58.0083 21.312V18.12H59.3883V27H58.0083V26.004C57.7843 26.324 57.4723 26.588 57.0723 26.796C56.6803 27.004 56.2283 27.108 55.7163 27.108C55.1403 27.108 54.6123 26.964 54.1323 26.676C53.6603 26.38 53.2843 25.972 53.0043 25.452C52.7323 24.924 52.5963 24.328 52.5963 23.664ZM58.0083 23.688C58.0083 23.232 57.9123 22.836 57.7203 22.5C57.5363 22.164 57.2923 21.908 56.9883 21.732C56.6843 21.556 56.3563 21.468 56.0043 21.468C55.6523 21.468 55.3243 21.556 55.0203 21.732C54.7163 21.9 54.4683 22.152 54.2763 22.488C54.0923 22.816 54.0003 23.208 54.0003 23.664C54.0003 24.12 54.0923 24.52 54.2763 24.864C54.4683 25.208 54.7163 25.472 55.0203 25.656C55.3323 25.832 55.6603 25.92 56.0043 25.92C56.3563 25.92 56.6843 25.832 56.9883 25.656C57.2923 25.48 57.5363 25.224 57.7203 24.888C57.9123 24.544 58.0083 24.144 58.0083 23.688ZM67.2452 23.532C67.2452 23.78 67.2292 24.004 67.1972 24.204H62.1452C62.1852 24.732 62.3812 25.156 62.7332 25.476C63.0852 25.796 63.5172 25.956 64.0292 25.956C64.7652 25.956 65.2852 25.648 65.5892 25.032H67.0652C66.8652 25.64 66.5012 26.14 65.9732 26.532C65.4532 26.916 64.8052 27.108 64.0292 27.108C63.3972 27.108 62.8292 26.968 62.3252 26.688C61.8292 26.4 61.4372 26 61.1492 25.488C60.8692 24.968 60.7292 24.368 60.7292 23.688C60.7292 23.008 60.8652 22.412 61.1372 21.9C61.4172 21.38 61.8052 20.98 62.3012 20.7C62.8052 20.42 63.3812 20.28 64.0292 20.28C64.6532 20.28 65.2092 20.416 65.6972 20.688C66.1852 20.96 66.5652 21.344 66.8372 21.84C67.1092 22.328 67.2452 22.892 67.2452 23.532ZM65.8172 23.1C65.8092 22.596 65.6292 22.192 65.2772 21.888C64.9252 21.584 64.4892 21.432 63.9692 21.432C63.4972 21.432 63.0932 21.584 62.7572 21.888C62.4212 22.184 62.2212 22.588 62.1572 23.1H65.8172Z" fill="black"/>
<path d="M10.1906 22.0594C9.89688 21.7656 9.75 21.4125 9.75 21C9.75 20.5875 9.89688 20.2344 10.1906 19.9406C10.4844 19.6469 10.8375 19.5 11.25 19.5C11.6625 19.5 12.0156 19.6469 12.3094 19.9406C12.6031 20.2344 12.75 20.5875 12.75 21C12.75 21.4125 12.6031 21.7656 12.3094 22.0594C12.0156 22.3531 11.6625 22.5 11.25 22.5C10.8375 22.5 10.4844 22.3531 10.1906 22.0594ZM17.6906 22.0594C17.3969 21.7656 17.25 21.4125 17.25 21C17.25 20.5875 17.3969 20.2344 17.6906 19.9406C17.9844 19.6469 18.3375 19.5 18.75 19.5C19.1625 19.5 19.5156 19.6469 19.8094 19.9406C20.1031 20.2344 20.25 20.5875 20.25 21C20.25 21.4125 20.1031 21.7656 19.8094 22.0594C19.5156 22.3531 19.1625 22.5 18.75 22.5C18.3375 22.5 17.9844 22.3531 17.6906 22.0594ZM10.6125 10.5L12.4125 14.25H17.6625L19.725 10.5H10.6125ZM9.9 9H20.9625C21.25 9 21.4688 9.12813 21.6188 9.38438C21.7688 9.64063 21.775 9.9 21.6375 10.1625L18.975 14.9625C18.8375 15.2125 18.6531 15.4063 18.4219 15.5438C18.1906 15.6813 17.9375 15.75 17.6625 15.75H12.075L11.25 17.25H20.25V18.75H11.25C10.6875 18.75 10.2625 18.5031 9.975 18.0094C9.6875 17.5156 9.675 17.025 9.9375 16.5375L10.95 14.7L8.25 9H6.75V7.5H9.1875L9.9 9Z" fill="white"/>
</svg>
